# xmcd
# 
# Track frame offsets:
#     182
#     21010
#     49377
#     67747
#     86370
#     106070
#     129770
#     162145
#     193605
#     213400
#     230725
# 
# Disc length: 3539
# 
# Revision: 17
# Processed by: cddbd v1.5.2PL0 Copyright (c) Steve Scherf et al.
# Submitted via: fre:ac v1.0.27
# 
DISCID=850dd10b
DTITLE=Rory Gallagher - Tattoo
DYEAR=1973
DGENRE=Blues Rock
TTITLE0=Tattoo'd Lady
TTITLE1=Cradle Rock
TTITLE2=20:20 Vision
TTITLE3=They Don't Make Them Like You Anymore
TTITLE4=Livin' Like A Trucker
TTITLE5=Sleep On A Clothes-Line
TTITLE6=Who's That Coming
TTITLE7=A Million Miles Away
TTITLE8=Admit It
TTITLE9=Tucson, Arizona
TTITLE10=Just A Little Bit
EXTD=CD 2000 - digitally remastered\nBMG/RCA 74321 601052 [CAPO 105]
EXTT0=
EXTT1=
EXTT2=
EXTT3=
EXTT4=
EXTT5=
EXTT6=
EXTT7=
EXTT8=
EXTT9=[Bonus Track]
EXTT10=[Bonus Track]
PLAYORDER=
